
<svg width="308px" height="332px" viewBox="0 0 308 332" version="1.1" xmlns="http://www.w3.org/2000/svg" xmlns:xlink="http://www.w3.org/1999/xlink">
    <defs>
        <path d="M22.44,137.44 L21.24,135.64 L45.24,81.28 C48.72,73.48 49.56,67.72 47.76,64.12 C45.96,60.64 42.6,58.84 37.8,58.84 L35.64,58.84 L35.64,57.04 C46.56,56.44 53.64,54.76 61.44,52.24 L62.4,52.72 L49.68,81.28 L31.2,122.92 L33,122.92 C39.12,112.96 42.48,107.8 50.16,97.48 C63.24,79.84 70.44,76.24 76.2,76.24 C83.04,76.24 84.6,83.2 77.04,99.88 L69.48,116.56 C67.2,121.72 66.48,125.08 67.56,126.88 C68.64,128.68 70.08,129.52 72,129.52 C76.68,129.52 82.8,126.16 90.84,114.16 L93.24,115.48 C82.8,131.32 72,138.64 64.68,138.64 C60.72,138.64 59.16,136.48 60,132.04 C60.84,127.6 62.76,121.96 65.88,115.12 L73.8,97.72 C77.04,90.52 75.12,86.56 70.2,86.56 C64.92,86.56 61.32,89.08 50.04,103.84 C41.52,115 36.12,124.84 30.96,137.44 L22.44,137.44 Z M162.24,114.16 L164.64,115.48 C154.56,130.84 145.08,138.64 138.24,138.64 C134.4,138.64 132.84,136.48 133.68,132.04 C134.4,127.6 136.32,121.96 139.32,115.12 L142.32,108.4 L140.64,108.4 C129.12,127.48 117.24,138.64 107.16,138.64 C101.28,138.64 97.8,134.92 97.8,127.36 C97.8,117.88 103.32,105.16 111.36,94.72 C115.32,89.56 119.88,85.12 125.04,81.52 C130.08,78.04 135.12,76.24 140.16,76.24 C146.04,76.24 150.84,80.56 152.4,85.84 L158.52,76.24 L160.44,76.24 L143.04,116.56 C140.76,121.72 140.16,125.08 141.24,126.88 C142.32,128.68 143.76,129.52 145.56,129.52 C149.76,129.52 154.56,125.68 162.24,114.16 Z M105.6,122.8 C105.6,129.16 107.28,132.04 111.72,132.04 C118.56,132.04 131.52,119.92 145.08,93.04 C146.04,87.28 143.16,81.52 136.08,81.52 C121.32,81.52 105.6,108.04 105.6,122.8 Z M235.32,85.36 C235.32,96.4 230.4,109.84 222.96,120.28 C215.52,130.84 205.32,138.64 195.12,138.64 C185.52,138.64 180.36,133.24 180.36,124.72 C180.36,115.12 187.2,103.6 201.24,86.8 C188.76,86.2 185.04,81.28 179.88,81.28 C177.36,81.28 175.2,82.72 175.08,85.6 C174.96,88 177,90.04 177,92.08 C177,94.96 174.96,96.64 172.44,96.52 C169.92,96.4 168.48,94.36 168.48,91.12 C168.48,84.28 177.96,74.56 186.36,74.56 C195.84,74.56 195.48,83.56 203.4,84.16 C205.44,81.64 207.84,79 210.36,76.24 L214.8,76.24 C194.64,99.04 189.36,110.44 189.36,120.76 C189.36,129.4 192.96,133.24 198.6,133.24 C214.32,133.24 227.28,107.32 227.28,98.32 C227.28,94.12 226.8,91.12 225.84,89.08 C224.76,87.16 224.28,85 224.28,82.72 C224.28,79.24 225.72,76 229.56,76 C233.4,76 235.32,79.48 235.32,85.36 Z M287.16,112.72 L289.44,114.28 C278.88,130.24 267.6,138.64 257.16,138.64 C246.96,138.64 242.4,131.68 242.4,123.04 C242.4,100.36 262.08,76.24 280.08,76.24 C288.84,76.24 292.8,79.96 292.8,87.16 C292.8,97.24 279.96,106.6 251.52,111.88 C251.04,114.64 250.8,117.28 250.8,120.04 C250.8,128.68 254.64,133.36 260.88,133.36 C268.2,133.36 276.6,128.2 287.16,112.72 Z M278.28,80.56 C266.52,80.56 255.6,93.16 252.12,108.88 C279,103.48 284.64,94.36 284.64,87.76 C284.64,83.08 282.24,80.56 278.28,80.56 Z M82.56,201.04 L74.04,232.12 C64.68,265.84 53.88,276.64 32.04,276.64 C27.84,276.64 23.88,275.32 23.88,271.96 C23.88,268.96 26.16,267.4 30.48,267.4 C34.68,267.4 37.92,269.56 43.2,269.56 C52.68,269.56 61.8,261.04 69.84,232.12 L78.36,201.04 L63.72,201.04 L63.72,197.44 L79.32,197.44 L79.92,195.28 C85.44,175.6 98.88,172.24 106.44,172.24 C112.8,172.24 117.6,173.8 117.6,177.64 C117.6,181.6 114.72,182.2 111,182.2 C107.04,182.2 104.64,180.76 99.72,180.76 C93.96,180.76 87.12,184.12 84.12,195.28 L83.52,197.44 L100.44,197.44 L100.44,201.04 L82.56,201.04 Z M166.92,197.44 L168.12,199.24 L151.68,236.56 C149.4,241.72 148.68,245.08 149.76,246.88 C150.84,248.68 152.28,249.52 154.08,249.52 C158.88,249.52 165.12,246.16 172.92,234.16 L175.32,235.48 C165.12,251.32 154.32,258.64 146.76,258.64 C142.92,258.64 141.36,256.48 142.2,252.04 C143.04,247.6 144.96,241.96 147.96,235.12 L158.16,211.96 L156.36,211.96 C150.24,221.92 146.88,227.08 139.2,237.4 C126.12,255.04 118.92,258.64 113.16,258.64 C106.32,258.64 104.76,251.68 112.32,235 L119.88,218.32 C122.16,213.16 122.76,209.8 121.68,208 C120.6,206.2 119.16,205.36 117.36,205.36 C113.16,205.36 108.36,209.2 100.68,220.72 L98.28,219.4 C108.36,204.04 117.84,196.24 124.68,196.24 C128.52,196.24 130.08,198.4 129.36,202.84 C128.52,207.28 126.6,212.92 123.6,219.76 L115.56,237.16 C112.32,244.36 114.24,248.32 119.16,248.32 C124.44,248.32 128.04,245.8 139.32,231.04 C147.84,219.88 153.24,210.04 158.4,197.44 L166.92,197.44 Z M229.68,258.64 C225.72,258.64 224.16,256.48 225,252.04 C225.84,247.6 227.76,241.96 230.88,235.12 L238.8,217.72 C242.04,210.52 240.12,206.56 235.2,206.56 C229.92,206.56 226.32,209.08 215.04,223.84 C206.52,235 201.12,244.84 195.96,257.44 L187.44,257.44 L186.24,255.64 L202.68,218.32 C204.96,213.16 205.56,209.8 204.48,208 C203.4,206.2 201.96,205.36 200.16,205.36 C195.96,205.36 191.16,209.2 183.48,220.72 L181.08,219.4 C191.16,204.04 200.64,196.24 207.48,196.24 C211.32,196.24 212.88,198.4 212.16,202.84 C211.32,207.28 209.4,212.92 206.4,219.76 L196.2,242.92 L198,242.92 C204.12,232.96 207.48,227.8 215.16,217.48 C228.24,199.84 235.44,196.24 241.2,196.24 C248.04,196.24 249.6,203.2 242.04,219.88 L234.48,236.56 C232.2,241.72 231.48,245.08 232.56,246.88 C233.64,248.68 235.08,249.52 237,249.52 C241.68,249.52 247.8,246.16 255.84,234.16 L258.24,235.48 C247.8,251.32 237,258.64 229.68,258.64 Z" id="path-1"></path>
    </defs>
    <g id="Page-1" stroke="none" stroke-width="1" fill="none" fill-rule="evenodd">
        <g id="iPhone-XR" transform="translate(-55.000000, -14.000000)" fill-rule="nonzero">
            <g id="Group" transform="translate(44.820000, 14.560000)">
                <path d="M79.4,88.44 L65.72,88.44 L65.72,15.36 L52.28,88.44 L37.76,88.44 L24.68,15.36 L24.68,88.44 L11,88.44 L11,2.28 L32.48,2.28 L45.44,70.68 L58.16,2.28 L79.4,2.28 L79.4,88.44 Z M150.2,58.32 C150.2,79.44 140.24,90.72 121.52,90.72 C103.52,90.72 93.2,79.32 93.2,59.4 L93.2,2.28 L108.2,2.28 L108.2,58.2 C108.2,69.24 113,75.48 121.52,75.48 C130.4,75.48 135.2,69.72 135.2,59.04 L135.2,2.28 L150.2,2.28 L150.2,58.32 Z M219.08,62.76 C219.08,80.04 208.16,90.72 190.4,90.72 C172.4,90.72 161.6,81 161,61.92 L175.16,61.92 C175.76,71.4 180.68,75.96 190.52,75.96 C199.64,75.96 204.92,71.88 204.92,64.92 C204.92,59.28 202.04,56.88 192.08,54 L184.52,51.84 C165.56,46.44 162.08,40.2 162.08,27 C162.08,10.2 172.16,0 188.96,0 C205.88,0 215.72,9.84 216.8,27.84 L202.64,27.84 C201.56,18.72 197.24,14.76 188.48,14.76 C180.68,14.76 175.88,18.72 175.88,25.2 C175.88,30.12 177.92,32.64 183.32,34.2 L200.6,39.36 C213.8,43.32 219.08,50.04 219.08,62.76 Z M243.8,88.44 L229.04,88.44 L229.04,2.28 L243.8,2.28 L243.8,88.44 Z M317.48,58.92 C313.28,81 302.72,90.72 286.88,90.72 C266.84,90.72 254.48,73.56 254.48,45.6 C254.48,17.52 267.08,0 287.24,0 C303.32,0 315.44,11.28 317.48,30.48 L302.72,30.48 C300.32,20.28 295.88,15.6 287.6,15.6 C276.2,15.6 269.48,26.76 269.48,45.72 C269.48,64.08 276.08,75.12 287.12,75.12 C295.16,75.12 300.08,70.56 302.72,58.92 L317.48,58.92 Z M73.28,122.28 L49.28,208.44 L35.24,208.44 L11.48,122.28 L27.32,122.28 L42.56,188.04 L57.92,122.28 L73.28,122.28 Z M96.2,208.44 L81.44,208.44 L81.44,122.28 L96.2,122.28 L96.2,208.44 Z M170,163.56 C170,188.88 160.04,208.44 140.6,208.44 L110,208.44 L110,122.28 L141.2,122.28 C159.44,122.28 170,137.4 170,163.56 Z M155,164.04 C155,146.76 150.2,137.04 138.56,137.04 L124.4,137.04 L124.4,193.68 L138.8,193.68 C149,193.68 155,182.76 155,164.04 Z M234.68,208.44 L181.04,208.44 L181.04,122.28 L233,122.28 L233,137.52 L195.44,137.52 L195.44,155.64 L230,155.64 L230,170.88 L195.44,170.88 L195.44,193.2 L234.68,193.2 L234.68,208.44 Z M311.48,165.36 C311.48,194.04 297.8,210.72 277.52,210.72 C256.76,210.72 243.56,193.56 243.56,165.48 C243.56,136.44 257.24,120 278,120 C297.56,120 311.48,136.68 311.48,165.36 Z M296.72,165 C296.72,146.76 289.16,135.24 277.76,135.24 C265.64,135.24 258.32,146.52 258.32,165.12 C258.32,184.08 265.52,195.48 277.52,195.48 C289.52,195.48 296.72,184.08 296.72,165 Z M85.28,328.44 L75.44,328.44 L73.88,317.64 C66.92,327.48 61.28,330.72 51.8,330.72 C32.48,330.72 19.4,312.72 19.4,285.96 C19.4,257.88 32.84,240 53.96,240 C70.52,240 82.52,250.32 85.04,269.04 L70.16,269.04 C68.72,260.64 62.12,254.76 54.32,254.76 C42.08,254.76 34.4,266.76 34.4,285.96 C34.4,304.68 41.72,315.48 54.32,315.48 C62.6,315.48 68.84,310.8 72.2,296.64 L55.64,296.64 L55.64,282 L85.28,282 L85.28,328.44 Z M160.76,328.44 L144.68,328.44 L140.12,310.68 L114.08,310.68 L109.16,328.44 L93.56,328.44 L118.76,242.28 L135.8,242.28 L160.76,328.44 Z M136.04,295.92 L127.16,261.36 L118.04,295.92 L136.04,295.92 Z M237.92,328.44 L224.24,328.44 L224.24,255.36 L210.8,328.44 L196.28,328.44 L183.2,255.36 L183.2,328.44 L169.52,328.44 L169.52,242.28 L191,242.28 L203.96,310.68 L216.68,242.28 L237.92,242.28 L237.92,328.44 Z M305.72,328.44 L252.08,328.44 L252.08,242.28 L304.04,242.28 L304.04,257.52 L266.48,257.52 L266.48,275.64 L301.04,275.64 L301.04,290.88 L266.48,290.88 L266.48,313.2 L305.72,313.2 L305.72,328.44 Z" id="MUSICVIDEOGAME" fill="#001AFF"></path>
                <g id="havefun" transform="translate(157.020000, 164.440000) rotate(-12.000000) translate(-157.020000, -164.440000) ">
                    <use fill="#001AFF" xlink:href="#path-1"></use>
                    <use stroke="#1200FF" stroke-width="1.25" fill="#FFFFFF" xlink:href="#path-1"></use>
                </g>
            </g>
        </g>
    </g>
</svg>
